# xmcd
# 
# Track frame offsets:
#     150
#     23562
#     47405
#     63572
#     79490
#     98555
#     117732
#     133497
#     151430
#     169872
# 
# Disc length: 2520
# 
# Revision: 6
# Processed by: cddbd v1.5.2PL0 Copyright (c) Steve Scherf et al.
# Submitted via: fre:ac v1.0.17
# 
DISCID=8709d60a
DTITLE=AC／DC - Back In Black
DYEAR=1980
DGENRE=Heavy Metal
TTITLE0=Hells Bells
TTITLE1=Shoot To Thrill
TTITLE2=What Do You Do For Money Honey
TTITLE3=Give The Dog A Bone
TTITLE4=Let Me Put My Love Into You
TTITLE5=Back In Black
TTITLE6=You Shook Me All Night Long
TTITLE7=Have A Drink On Me
TTITLE8=Shake A Leg
TTITLE9=Rock And Roll Ain't Noise Pollution
EXTD=YEAR: 1980
EXTT0=
EXTT1=
EXTT2=
EXTT3=
EXTT4=
EXTT5=
EXTT6=
EXTT7=
EXTT8=
EXTT9=
PLAYORDER=
